<svg width="22" height="22" viewBox="0 0 22 22" fill="none" xmlns="http://www.w3.org/2000/svg">
<path d="M15.583 0.99999C14.7282 1.00475 13.8829 1.17931 13.0961 1.51355C12.3093 1.84779 11.5968 2.33504 11 2.94699C10.114 2.03104 8.97468 1.40045 7.72805 1.13601C6.48142 0.871572 5.18423 0.985317 4.00265 1.46268C2.82107 1.94004 1.8089 2.75927 1.0958 3.81544C0.382696 4.87161 0.00113826 6.11662 0 7.39099C0 13.235 9.994 21.447 10.42 21.791C10.584 21.9242 10.7888 21.9968 11 21.9968C11.2112 21.9968 11.416 21.9242 11.58 21.791C12.006 21.447 22 13.235 22 7.39099C21.9944 5.6932 21.3158 4.06691 20.1128 2.86882C18.9098 1.67074 17.2808 0.998657 15.583 0.99999Z" fill="#FA7B26"/>
</svg>
